Patient4_TMGait_0pt8_01_right_26_EMG.mot
version=1
nRows=13
nColumns=33
inDegrees=no
endheader
time	1LAddLong	2LGlutMax	3LGlutMed	4LIliopsoas	5LSemiMemb	6LBicFemLong	7LRecFem	8LVastMed	9LVastLat	10LGasMed	11LTibAnt	12lTibPost	13LPeroneusLong	14LSol	15LExtDigLong	16LFlexDigLong	17RAddLong	18RGlutMax	19RGlutMed	20RIliopsoas	21RSemiMemb	22RBicFemLong	23RRecFem	24RVastMed	25RVastLat	26RGasMed	27RTibAnt	28RTibPost	29RPeroneusLong	30RSol	31RExtDigLong	32RFlexDigLong
29.85	-0.025177	0.22125	0.00885	0.013733	-0.16907	0.3688	-0.082397	0.012512	0.028229	0.078888	-0.039825	-0.012054	0.059662	0.013123	0.005798	0.003967	0.019073	0.17807	-0.42755	-0.055389	0.14801	-0.000153	-0.39307	-0.042572	-0.037384	-0.013123	0.10346	-0.000153	-0.26489	-0.071259	-0.001831	-0.02533
29.851	-0.027618	0.25848	-0.007324	-0.001831	-0.22751	0.3714	-0.10498	0.007172	-0.088959	-0.000763	-0.24857	-0.00824	0.11078	0.012665	0.090485	0.007629	0.013733	0.18753	-0.39322	-0.18005	0.1413	0.019684	-0.3772	-0.018616	-0.00946	-0.008087	0.26154	-0.000458	-0.26352	-0.1442	-0.001678	-0.023499
29.852	-0.025787	0.21835	-0.054321	0.008698	-0.25207	0.29159	-0.062866	0.000763	-0.17517	-0.063629	-0.14648	-0.002747	0.056152	0.032196	0.28686	0.009308	0.020447	0.16876	-0.26535	-0.1709	0.15106	-0.004883	-0.40756	0.00473	-0.013733	-0.007172	0.45273	0.000153	-0.46036	-0.092316	-0.003967	-0.014954
29.853	-0.00412	0.14557	-0.027008	-0.006714	-0.16449	-0.06424	-0.062103	-0.001831	-0.2179	-0.049438	0.041809	-0.00473	-0.03067	0.050507	0.61233	0.003815	0.009766	0.13184	0.021515	-0.015717	0.13947	0.004272	-0.41031	-0.03067	-0.014801	-0.012817	0.34653	-0.005798	0.44586	0.05188	0.001678	-0.015717
29.854	0.02182	0.090942	-0.12405	-0.005188	-0.037842	-0.42694	0.016479	0.000305	-0.23956	-0.020142	0.24414	-0.006104	-0.04425	0.10178	0.25589	0.021973	0.018921	0.17593	0.19836	0.10117	0.13809	0.072021	-0.44739	-0.026703	-0.015411	-0.001984	0.3772	-0.002899	0.60135	-0.0383	-0.002747	-0.0177
29.855	0.039063	0.050201	-0.045166	0.005951	0.052795	-0.63507	0.10773	-0.006104	-0.26184	-0.032959	0.46341	-0.023499	0.015869	0.1532	0.55374	0.027466	-0.001984	0.22858	0.22232	0.11353	0.15106	0.038147	-0.41519	-0.03067	-0.005951	-0.003357	0.55878	-0.003357	0.11139	-0.17029	0.003052	-0.013275
29.856	0.038605	-0.009155	-0.15915	0.011292	0.11734	-0.63995	0.14893	-0.010223	-0.27786	-0.059662	0.43259	-0.018158	0.08316	0.22644	0.58929	0.032196	-0.005951	0.22446	0.26886	0.12466	0.18341	0.015869	-0.41992	0.030518	-0.015411	0.001831	0.69672	-0.000763	-0.02243	-0.24689	-0.001068	-0.008698
29.857	0.045319	0.024872	-0.25436	0.007935	0.21805	-0.40192	0.14023	-0.016937	-0.21362	-0.079498	0.18463	-0.019989	0.061951	0.27969	-0.14832	0.018463	-0.005798	0.12116	-0.12268	0.012054	0.1831	-0.023499	-0.4039	0.022278	-0.019531	0.002747	0.077057	-0.002289	0.56824	-0.27039	-0.002594	-0.010376
29.858	0.048676	-0.034485	-0.39078	-0.005188	0.22369	0.25391	0.14984	-0.013885	-0.16998	-0.029297	-0.21957	-0.018768	0.011292	0.35141	-0.75211	0.019531	-0.002136	0.063629	-0.64499	-0.043945	0.18051	-0.08606	-0.35553	-0.000916	-0.031738	0.000153	-0.078735	-0.006561	0.50644	-0.27496	-0.000458	-0.01236
29.859	0.034637	-0.070038	-0.24811	-0.006409	0.16022	0.56595	0.15137	-0.00885	-0.11887	0.018921	-0.27191	-0.016479	-0.001221	0.36392	-0.80582	-0.000763	-0.006256	0.022125	-0.72174	-0.086975	0.2182	-0.069885	-0.31723	-0.011749	-0.064392	-0.00885	-0.41977	-0.002441	0.32257	-0.23712	-0.001221	-0.015411
29.86	0.015564	-0.11704	0.13626	0.016632	0.061646	0.57754	0.15396	0.016174	0.12451	0.02182	-0.12375	-0.02121	0.065002	0.24674	-0.56656	-0.014496	0.00412	-0.017395	-0.28198	-0.091705	0.21561	-0.033875	-0.28778	0.022888	-0.083618	-0.001221	-1.5077	-0.004425	0.85922	-0.26932	0.001831	-0.018463
29.861	-0.009613	-0.13992	0.28961	0.01709	-0.009155	0.49393	0.20859	0.03479	0.082397	0.021667	-0.13138	-0.013275	-0.028534	0.057983	-0.31998	-0.007935	0.003815	0.029907	-0.2092	0.037384	0.19028	0.001068	-0.31952	0.018463	-0.07309	-0.005493	-0.54565	-0.005493	0.40985	-0.22049	-0.000458	-0.01709
29.862	-0.041809	-0.16602	0.23163	0.015259	-0.019684	0.42862	0.15198	0.049438	0.067444	0.018005	-0.21347	-0.022888	0.1561	-0.019379	-0.71365	-0.016174	-0.005035	-0.045471	-0.41611	0.095673	0.16632	0.00824	-0.37506	-0.016327	-0.077667	-0.006866	0.24536	-0.000916	-1.0397	-0.17212	0.002136	-0.013275
